<?xml version="1.0" encoding="UTF-8" standalone="no"?>
<!DOCTYPE svg PUBLIC "-//W3C//DTD SVG 1.1//EN"
 "http://www.w3.org/Graphics/SVG/1.1/DTD/svg11.dtd">
<!-- Generated by graphviz version 2.43.0 (0)
 -->
<!-- Title: dependency&#45;cruiser output Pages: 1 -->
<svg width="262pt" height="106pt"
 viewBox="0.00 0.00 262.00 106.00" xmlns="http://www.w3.org/2000/svg" xmlns:xlink="http://www.w3.org/1999/xlink">
<g id="graph0" class="graph" transform="scale(1 1) rotate(0) translate(4 102)">
<title>dependency&#45;cruiser output</title>
<polygon fill="white" stroke="transparent" points="-4,4 -4,-102 258,-102 258,4 -4,4"/>
<g id="clust1" class="cluster">
<title>cluster_src</title>
<path fill="#ffffff" stroke="black" stroke-width="2" d="M20,-8C20,-8 234,-8 234,-8 240,-8 246,-14 246,-20 246,-20 246,-78 246,-78 246,-84 240,-90 234,-90 234,-90 20,-90 20,-90 14,-90 8,-84 8,-78 8,-78 8,-20 8,-20 8,-14 14,-8 20,-8"/>
<text text-anchor="middle" x="127" y="-78.8" font-family="Helvetica,sans-Serif" font-weight="bold" font-size="9.00">src</text>
</g>
<!-- src/components -->
<g id="node1" class="node">
<title>src/components</title>
<g id="a_node1"><a xlink:href="#/src/components" xlink:title="no&#45;orphans">
<polygon fill="#ffffcc" stroke="orange" points="89,-45 18,-45 16,-43 16,-27 87,-27 89,-29 89,-45"/>
<polyline fill="none" stroke="orange" points="87,-43 16,-43 "/>
<polyline fill="none" stroke="orange" points="87,-43 87,-27 "/>
<polyline fill="none" stroke="orange" points="87,-43 89,-45 "/>
<text text-anchor="middle" x="52.5" y="-33.8" font-family="Helvetica,sans-Serif" font-size="9.00" fill="orange">components</text>
</a>
</g>
</g>
<!-- src/core -->
<g id="node2" class="node">
<title>src/core</title>
<g id="a_node2"><a xlink:href="#/src/core" xlink:title="core">
<polygon fill="#ffffcc" stroke="black" points="230.5,-34 178.5,-34 176.5,-32 176.5,-16 228.5,-16 230.5,-18 230.5,-34"/>
<polyline fill="none" stroke="black" points="228.5,-32 176.5,-32 "/>
<polyline fill="none" stroke="black" points="228.5,-32 228.5,-16 "/>
<polyline fill="none" stroke="black" points="228.5,-32 230.5,-34 "/>
<text text-anchor="middle" x="203.5" y="-22.8" font-family="Helvetica,sans-Serif" font-size="9.00">core</text>
</a>
</g>
</g>
<!-- src/components&#45;&gt;src/core -->
<g id="edge1" class="edge">
<title>src/components&#45;&gt;src/core</title>
<path fill="none" stroke="#000000" stroke-opacity="0.200000" d="M89.05,-29.33C89.05,-29.33 171.28,-29.33 171.28,-29.33"/>
<polygon fill="#000000" fill-opacity="0.200000" stroke="#000000" stroke-opacity="0.200000" points="176.28,-29.33 171.28,-31.58 173.78,-29.33 171.28,-29.33 171.28,-29.33 171.28,-29.33 173.78,-29.33 171.28,-27.08 176.28,-29.33 176.28,-29.33"/>
</g>
<!-- src/global -->
<g id="node3" class="node">
<title>src/global</title>
<g id="a_node3"><a xlink:href="#/src/global" xlink:title="global">
<polygon fill="#ffffcc" stroke="black" points="156,-56 104,-56 102,-54 102,-38 154,-38 156,-40 156,-56"/>
<polyline fill="none" stroke="black" points="154,-54 102,-54 "/>
<polyline fill="none" stroke="black" points="154,-54 154,-38 "/>
<polyline fill="none" stroke="black" points="154,-54 156,-56 "/>
<text text-anchor="middle" x="129" y="-44.8" font-family="Helvetica,sans-Serif" font-size="9.00">global</text>
</a>
</g>
</g>
<!-- src/components&#45;&gt;src/global -->
<g id="edge2" class="edge">
<title>src/components&#45;&gt;src/global</title>
<path fill="none" stroke="#000000" stroke-opacity="0.200000" d="M89.41,-41.5C89.41,-41.5 96.66,-41.5 96.66,-41.5"/>
<polygon fill="#000000" fill-opacity="0.200000" stroke="#000000" stroke-opacity="0.200000" points="101.66,-41.5 96.66,-43.75 99.16,-41.5 96.66,-41.5 96.66,-41.5 96.66,-41.5 99.16,-41.5 96.66,-39.25 101.66,-41.5 101.66,-41.5"/>
</g>
<!-- src/global&#45;&gt;src/core -->
<g id="edge3" class="edge">
<title>src/global&#45;&gt;src/core</title>
<path fill="none" stroke="#000000" stroke-opacity="0.200000" d="M129,-37.9C129,-34.6 129,-31.67 129,-31.67 129,-31.67 171.18,-31.67 171.18,-31.67"/>
<polygon fill="#000000" fill-opacity="0.200000" stroke="#000000" stroke-opacity="0.200000" points="176.18,-31.67 171.18,-33.92 173.68,-31.67 171.18,-31.67 171.18,-31.67 171.18,-31.67 173.68,-31.67 171.18,-29.42 176.18,-31.67 176.18,-31.67"/>
</g>
<!-- src/singleton.ts -->
<g id="node4" class="node">
<title>src/singleton.ts</title>
<g id="a_node4"><a xlink:href="#/src/singleton.ts" xlink:title="singleton.ts">
<path fill="#ddfeff" stroke="black" d="M232,-64C232,-64 175,-64 175,-64 172,-64 169,-61 169,-58 169,-58 169,-52 169,-52 169,-49 172,-46 175,-46 175,-46 232,-46 232,-46 235,-46 238,-49 238,-52 238,-52 238,-58 238,-58 238,-61 235,-64 232,-64"/>
<text text-anchor="middle" x="203.5" y="-52.8" font-family="Helvetica,sans-Serif" font-size="9.00">singleton.ts</text>
</a>
</g>
</g>
<!-- src/global&#45;&gt;src/singleton.ts -->
<g id="edge4" class="edge">
<title>src/global&#45;&gt;src/singleton.ts</title>
<path fill="none" stroke="#007700" stroke-dasharray="5,2" stroke-opacity="0.466667" d="M156.32,-51C156.32,-51 163.82,-51 163.82,-51"/>
<polygon fill="#007700" fill-opacity="0.466667" stroke="#007700" stroke-opacity="0.466667" points="168.82,-51 163.82,-53.25 166.32,-51 163.82,-51 163.82,-51 163.82,-51 166.32,-51 163.82,-48.75 168.82,-51 168.82,-51"/>
</g>
</g>
</svg>
