<?xml version="1.0" encoding="UTF-8" standalone="no"?>
<!DOCTYPE svg PUBLIC "-//W3C//DTD SVG 1.1//EN"
 "http://www.w3.org/Graphics/SVG/1.1/DTD/svg11.dtd">
<!-- Generated by graphviz version 2.43.0 (0)
 -->
<!-- Title: dependency&#45;cruiser output Pages: 1 -->
<svg width="360pt" height="194pt"
 viewBox="0.00 0.00 360.00 194.00" xmlns="http://www.w3.org/2000/svg" xmlns:xlink="http://www.w3.org/1999/xlink">
<g id="graph0" class="graph" transform="scale(1 1) rotate(0) translate(4 190)">
<title>dependency&#45;cruiser output</title>
<polygon fill="white" stroke="transparent" points="-4,4 -4,-190 356,-190 356,4 -4,4"/>
<g id="clust1" class="cluster">
<title>cluster_node_modules</title>
<path fill="#ffffff" stroke="black" stroke-width="2" d="M268.5,-8C268.5,-8 334.5,-8 334.5,-8 340.5,-8 346.5,-14 346.5,-20 346.5,-20 346.5,-48 346.5,-48 346.5,-54 340.5,-60 334.5,-60 334.5,-60 268.5,-60 268.5,-60 262.5,-60 256.5,-54 256.5,-48 256.5,-48 256.5,-20 256.5,-20 256.5,-14 262.5,-8 268.5,-8"/>
<text text-anchor="middle" x="301.5" y="-48.8" font-family="Helvetica,sans-Serif" font-weight="bold" font-size="9.00">node_modules</text>
</g>
<g id="clust2" class="cluster">
<title>cluster_src</title>
<path fill="#ffffff" stroke="black" stroke-width="2" d="M20,-68C20,-68 332,-68 332,-68 338,-68 344,-74 344,-80 344,-80 344,-166 344,-166 344,-172 338,-178 332,-178 332,-178 20,-178 20,-178 14,-178 8,-172 8,-166 8,-166 8,-80 8,-80 8,-74 14,-68 20,-68"/>
<text text-anchor="middle" x="176" y="-166.8" font-family="Helvetica,sans-Serif" font-weight="bold" font-size="9.00">src</text>
</g>
<!-- node_modules/debug -->
<g id="node1" class="node">
<title>node_modules/debug</title>
<g id="a_node1"><a xlink:href="#/node_modules/debug" xlink:title="debug">
<polygon fill="#c40b0a" fill-opacity="0.101961" stroke="black" points="328.5,-34 276.5,-34 274.5,-32 274.5,-16 326.5,-16 328.5,-18 328.5,-34"/>
<polyline fill="none" stroke="black" points="326.5,-32 274.5,-32 "/>
<polyline fill="none" stroke="black" points="326.5,-32 326.5,-16 "/>
<polyline fill="none" stroke="black" points="326.5,-32 328.5,-34 "/>
<text text-anchor="middle" x="301.5" y="-22.8" font-family="Helvetica,sans-Serif" font-size="9.00" fill="#c40b0a">debug</text>
</a>
</g>
</g>
<!-- src/assets -->
<g id="node2" class="node">
<title>src/assets</title>
<g id="a_node2"><a xlink:href="#/src/assets" xlink:title="no&#45;orphans">
<polygon fill="#ccffcc" stroke="orange" points="70,-150 18,-150 16,-148 16,-132 68,-132 70,-134 70,-150"/>
<polyline fill="none" stroke="orange" points="68,-148 16,-148 "/>
<polyline fill="none" stroke="orange" points="68,-148 68,-132 "/>
<polyline fill="none" stroke="orange" points="68,-148 70,-150 "/>
<text text-anchor="middle" x="43" y="-138.8" font-family="Helvetica,sans-Serif" font-size="9.00" fill="orange">assets</text>
</a>
</g>
</g>
<!-- src/core -->
<g id="node3" class="node">
<title>src/core</title>
<g id="a_node3"><a xlink:href="#/src/core" xlink:title="no&#45;orphans">
<polygon fill="#ffffcc" stroke="orange" points="328.5,-108 276.5,-108 274.5,-106 274.5,-90 326.5,-90 328.5,-92 328.5,-108"/>
<polyline fill="none" stroke="orange" points="326.5,-106 274.5,-106 "/>
<polyline fill="none" stroke="orange" points="326.5,-106 326.5,-90 "/>
<polyline fill="none" stroke="orange" points="326.5,-106 328.5,-108 "/>
<text text-anchor="middle" x="301.5" y="-96.8" font-family="Helvetica,sans-Serif" font-size="9.00" fill="orange">core</text>
</a>
</g>
</g>
<!-- src/global -->
<g id="node4" class="node">
<title>src/global</title>
<g id="a_node4"><a xlink:href="#/src/global" xlink:title="global">
<polygon fill="#ffffcc" stroke="black" points="240,-108 188,-108 186,-106 186,-90 238,-90 240,-92 240,-108"/>
<polyline fill="none" stroke="black" points="238,-106 186,-106 "/>
<polyline fill="none" stroke="black" points="238,-106 238,-90 "/>
<polyline fill="none" stroke="black" points="238,-106 240,-108 "/>
<text text-anchor="middle" x="213" y="-96.8" font-family="Helvetica,sans-Serif" font-size="9.00">global</text>
</a>
</g>
</g>
<!-- src/global&#45;&gt;node_modules/debug -->
<g id="edge3" class="edge">
<title>src/global&#45;&gt;node_modules/debug</title>
<path fill="none" stroke="#000000" stroke-dasharray="5,2" stroke-opacity="0.200000" d="M204,-89.93C204,-70.17 204,-25 204,-25 204,-25 269.34,-25 269.34,-25"/>
<polygon fill="#000000" fill-opacity="0.200000" stroke="#000000" stroke-opacity="0.200000" points="274.34,-25 269.34,-27.25 271.84,-25 269.34,-25 269.34,-25 269.34,-25 271.84,-25 269.34,-22.75 274.34,-25 274.34,-25"/>
</g>
<!-- src/global&#45;&gt;src/core -->
<g id="edge1" class="edge">
<title>src/global&#45;&gt;src/core</title>
<path fill="none" stroke="#000000" stroke-opacity="0.200000" d="M240.03,-96C240.03,-96 269.33,-96 269.33,-96"/>
<polygon fill="#000000" fill-opacity="0.200000" stroke="#000000" stroke-opacity="0.200000" points="274.33,-96 269.33,-98.25 271.83,-96 269.33,-96 269.33,-96 269.33,-96 271.83,-96 269.33,-93.75 274.33,-96 274.33,-96"/>
</g>
<!-- src/singleton.ts -->
<g id="node5" class="node">
<title>src/singleton.ts</title>
<g id="a_node5"><a xlink:href="#/src/singleton.ts" xlink:title="singleton.ts">
<path fill="#ddfeff" stroke="black" d="M330,-145C330,-145 273,-145 273,-145 270,-145 267,-142 267,-139 267,-139 267,-133 267,-133 267,-130 270,-127 273,-127 273,-127 330,-127 330,-127 333,-127 336,-130 336,-133 336,-133 336,-139 336,-139 336,-142 333,-145 330,-145"/>
<text text-anchor="middle" x="301.5" y="-133.8" font-family="Helvetica,sans-Serif" font-size="9.00">singleton.ts</text>
</a>
</g>
</g>
<!-- src/global&#45;&gt;src/singleton.ts -->
<g id="edge2" class="edge">
<title>src/global&#45;&gt;src/singleton.ts</title>
<path fill="none" stroke="#007700" stroke-dasharray="5,2" stroke-opacity="0.466667" d="M240.08,-102C255.59,-102 272,-102 272,-102 272,-102 272,-121.71 272,-121.71"/>
<polygon fill="#007700" fill-opacity="0.466667" stroke="#007700" stroke-opacity="0.466667" points="272,-126.71 269.75,-121.71 272,-124.21 272,-121.71 272,-121.71 272,-121.71 272,-124.21 274.25,-121.71 272,-126.71 272,-126.71"/>
</g>
<!-- src/global.ts -->
<g id="node6" class="node">
<title>src/global.ts</title>
<g id="a_node6"><a xlink:href="#/src/global.ts" xlink:title="global.ts">
<path fill="#ddfeff" stroke="black" d="M147.5,-94C147.5,-94 104.5,-94 104.5,-94 101.5,-94 98.5,-91 98.5,-88 98.5,-88 98.5,-82 98.5,-82 98.5,-79 101.5,-76 104.5,-76 104.5,-76 147.5,-76 147.5,-76 150.5,-76 153.5,-79 153.5,-82 153.5,-82 153.5,-88 153.5,-88 153.5,-91 150.5,-94 147.5,-94"/>
<text text-anchor="middle" x="126" y="-82.8" font-family="Helvetica,sans-Serif" font-size="9.00">global.ts</text>
</a>
</g>
</g>
<!-- src/global.ts&#45;&gt;src/core -->
<g id="edge4" class="edge">
<title>src/global.ts&#45;&gt;src/core</title>
<path fill="none" stroke="#000000" stroke-opacity="0.200000" d="M153.89,-80.67C203.51,-80.67 302,-80.67 302,-80.67 302,-80.67 302,-84.83 302,-84.83"/>
<polygon fill="#000000" fill-opacity="0.200000" stroke="#000000" stroke-opacity="0.200000" points="302,-89.83 299.75,-84.83 302,-87.33 302,-84.83 302,-84.83 302,-84.83 302,-87.33 304.25,-84.83 302,-89.83 302,-89.83"/>
</g>
<!-- src/global.ts&#45;&gt;src/global -->
<g id="edge5" class="edge">
<title>src/global.ts&#45;&gt;src/global</title>
<path fill="none" stroke="#000000" stroke-opacity="0.200000" d="M153.51,-85.33C181.88,-85.33 222,-85.33 222,-85.33 222,-85.33 222,-85.8 222,-85.8"/>
<polygon fill="#000000" fill-opacity="0.200000" stroke="#000000" stroke-opacity="0.200000" points="222,-89.96 219.75,-84.96 222,-87.46 222,-84.96 222,-84.96 222,-84.96 222,-87.46 224.25,-84.96 222,-89.96 222,-89.96"/>
</g>
<!-- src/index.ts -->
<g id="node7" class="node">
<title>src/index.ts</title>
<g id="a_node7"><a xlink:href="#/src/index.ts" xlink:title="index.ts">
<path fill="#ddfeff" stroke="black" d="M64,-117C64,-117 22,-117 22,-117 19,-117 16,-114 16,-111 16,-111 16,-105 16,-105 16,-102 19,-99 22,-99 22,-99 64,-99 64,-99 67,-99 70,-102 70,-105 70,-105 70,-111 70,-111 70,-114 67,-117 64,-117"/>
<text text-anchor="middle" x="43" y="-105.8" font-family="Helvetica,sans-Serif" font-size="9.00">index.ts</text>
</a>
</g>
</g>
<!-- src/index.ts&#45;&gt;src/global -->
<g id="edge7" class="edge">
<title>src/index.ts&#45;&gt;src/global</title>
<path fill="none" stroke="#000000" stroke-opacity="0.200000" d="M70.31,-105C70.31,-105 180.75,-105 180.75,-105"/>
<polygon fill="#000000" fill-opacity="0.200000" stroke="#000000" stroke-opacity="0.200000" points="185.75,-105 180.75,-107.25 183.25,-105 180.75,-105 180.75,-105 180.75,-105 183.25,-105 180.75,-102.75 185.75,-105 185.75,-105"/>
</g>
<!-- src/index.ts&#45;&gt;src/singleton.ts -->
<g id="edge9" class="edge">
<title>src/index.ts&#45;&gt;src/singleton.ts</title>
<path fill="none" stroke="#007700" stroke-dasharray="5,2" stroke-opacity="0.466667" d="M70.38,-111C130.76,-111 270,-111 270,-111 270,-111 270,-121.97 270,-121.97"/>
<polygon fill="#007700" fill-opacity="0.466667" stroke="#007700" stroke-opacity="0.466667" points="270,-126.97 267.75,-121.97 270,-124.47 270,-121.97 270,-121.97 270,-121.97 270,-124.47 272.25,-121.97 270,-126.97 270,-126.97"/>
</g>
<!-- src/index.ts&#45;&gt;src/global.ts -->
<g id="edge6" class="edge">
<title>src/index.ts&#45;&gt;src/global.ts</title>
<path fill="none" stroke="#000000" stroke-opacity="0.200000" d="M70.18,-102C94.38,-102 126,-102 126,-102 126,-102 126,-99.3 126,-99.3"/>
<polygon fill="#000000" fill-opacity="0.200000" stroke="#000000" stroke-opacity="0.200000" points="126,-94.3 128.25,-99.3 126,-96.8 126,-99.3 126,-99.3 126,-99.3 126,-96.8 123.75,-99.3 126,-94.3 126,-94.3"/>
</g>
<!-- src/presentationals -->
<g id="node8" class="node">
<title>src/presentationals</title>
<g id="a_node8"><a xlink:href="#/src/presentationals" xlink:title="presentationals">
<polygon fill="#ffffcc" stroke="black" points="169,-138 85,-138 83,-136 83,-120 167,-120 169,-122 169,-138"/>
<polyline fill="none" stroke="black" points="167,-136 83,-136 "/>
<polyline fill="none" stroke="black" points="167,-136 167,-120 "/>
<polyline fill="none" stroke="black" points="167,-136 169,-138 "/>
<text text-anchor="middle" x="126" y="-126.8" font-family="Helvetica,sans-Serif" font-size="9.00">presentationals</text>
</a>
</g>
</g>
<!-- src/index.ts&#45;&gt;src/presentationals -->
<g id="edge8" class="edge">
<title>src/index.ts&#45;&gt;src/presentationals</title>
<path fill="none" stroke="#000000" stroke-opacity="0.200000" d="M70.09,-114C80.97,-114 91,-114 91,-114 91,-114 91,-114.76 91,-114.76"/>
<polygon fill="#000000" fill-opacity="0.200000" stroke="#000000" stroke-opacity="0.200000" points="91,-119.76 88.75,-114.76 91,-117.26 91,-114.76 91,-114.76 91,-114.76 91,-117.26 93.25,-114.76 91,-119.76 91,-119.76"/>
</g>
<!-- src/types.d.ts -->
<g id="node9" class="node">
<title>src/types.d.ts</title>
<g id="a_node9"><a xlink:href="#/src/types.d.ts" xlink:title="types.d.ts">
<path fill="#ddfeff" stroke="black" d="M238,-138C238,-138 188,-138 188,-138 185,-138 182,-135 182,-132 182,-132 182,-126 182,-126 182,-123 185,-120 188,-120 188,-120 238,-120 238,-120 241,-120 244,-123 244,-126 244,-126 244,-132 244,-132 244,-135 241,-138 238,-138"/>
<text text-anchor="middle" x="213" y="-126.8" font-family="Helvetica,sans-Serif" font-size="9.00">types.d.ts</text>
</a>
</g>
</g>
<!-- src/types.d.ts&#45;&gt;src/core -->
<g id="edge10" class="edge">
<title>src/types.d.ts&#45;&gt;src/core</title>
<path fill="none" stroke="#000000" stroke-opacity="0.200000" d="M244.13,-123.5C269.79,-123.5 302,-123.5 302,-123.5 302,-123.5 302,-113.12 302,-113.12"/>
<polygon fill="#000000" fill-opacity="0.200000" stroke="#000000" stroke-opacity="0.200000" points="302,-108.12 304.25,-113.12 302,-110.62 302,-113.12 302,-113.12 302,-113.12 302,-110.62 299.75,-113.12 302,-108.12 302,-108.12"/>
</g>
</g>
</svg>
