<?xml version="1.0" encoding="UTF-8" standalone="no"?>
<!DOCTYPE svg PUBLIC "-//W3C//DTD SVG 1.1//EN"
 "http://www.w3.org/Graphics/SVG/1.1/DTD/svg11.dtd">
<!-- Generated by graphviz version 2.43.0 (0)
 -->
<!-- Title: G Pages: 1 -->
<svg width="855pt" height="722pt"
 viewBox="0.00 0.00 855.20 722.20" xmlns="http://www.w3.org/2000/svg" xmlns:xlink="http://www.w3.org/1999/xlink">
<g id="graph0" class="graph" transform="scale(1 1) rotate(0) translate(21.6 700.6)">
<title>G</title>
<polygon fill="#111111" stroke="transparent" points="-21.6,21.6 -21.6,-700.6 833.6,-700.6 833.6,21.6 -21.6,21.6"/>
<!-- global.scss -->
<g id="node1" class="node">
<title>global.scss</title>
<path fill="none" stroke="#c6c5fe" d="M112.33,-125C112.33,-125 44.67,-125 44.67,-125 40.83,-125 37,-121.17 37,-117.33 37,-117.33 37,-109.67 37,-109.67 37,-105.83 40.83,-102 44.67,-102 44.67,-102 112.33,-102 112.33,-102 116.17,-102 120,-105.83 120,-109.67 120,-109.67 120,-117.33 120,-117.33 120,-121.17 116.17,-125 112.33,-125"/>
<text text-anchor="middle" x="78.5" y="-109.8" font-family="Arial" font-size="14.00" fill="#c6c5fe">global.scss</text>
</g>
<!-- scss/atoms/_all.scss -->
<g id="node2" class="node">
<title>scss/atoms/_all.scss</title>
<path fill="none" stroke="#c6c5fe" d="M352.33,-310C352.33,-310 227.67,-310 227.67,-310 223.83,-310 220,-306.17 220,-302.33 220,-302.33 220,-294.67 220,-294.67 220,-290.83 223.83,-287 227.67,-287 227.67,-287 352.33,-287 352.33,-287 356.17,-287 360,-290.83 360,-294.67 360,-294.67 360,-302.33 360,-302.33 360,-306.17 356.17,-310 352.33,-310"/>
<text text-anchor="middle" x="290" y="-294.8" font-family="Arial" font-size="14.00" fill="#c6c5fe">scss/atoms/_all.scss</text>
</g>
<!-- global.scss&#45;&gt;scss/atoms/_all.scss -->
<g id="edge1" class="edge">
<title>global.scss&#45;&gt;scss/atoms/_all.scss</title>
<path fill="none" stroke="#757575" d="M92.61,-125.07C127.95,-156.28 225.46,-242.39 268.32,-280.24"/>
<polygon fill="#757575" stroke="#757575" points="266.09,-282.94 275.9,-286.93 270.72,-277.69 266.09,-282.94"/>
</g>
<!-- scss/base/_all.scss -->
<g id="node3" class="node">
<title>scss/base/_all.scss</title>
<path fill="none" stroke="#c6c5fe" d="M348.33,-125C348.33,-125 231.67,-125 231.67,-125 227.83,-125 224,-121.17 224,-117.33 224,-117.33 224,-109.67 224,-109.67 224,-105.83 227.83,-102 231.67,-102 231.67,-102 348.33,-102 348.33,-102 352.17,-102 356,-105.83 356,-109.67 356,-109.67 356,-117.33 356,-117.33 356,-121.17 352.17,-125 348.33,-125"/>
<text text-anchor="middle" x="290" y="-109.8" font-family="Arial" font-size="14.00" fill="#c6c5fe">scss/base/_all.scss</text>
</g>
<!-- global.scss&#45;&gt;scss/base/_all.scss -->
<g id="edge2" class="edge">
<title>global.scss&#45;&gt;scss/base/_all.scss</title>
<path fill="none" stroke="#757575" d="M120.39,-113.5C146.93,-113.5 182.32,-113.5 213.81,-113.5"/>
<polygon fill="#757575" stroke="#757575" points="213.89,-117 223.89,-113.5 213.89,-110 213.89,-117"/>
</g>
<!-- scss/generic/_all.scss -->
<g id="node4" class="node">
<title>scss/generic/_all.scss</title>
<path fill="none" stroke="#c6c5fe" d="M355.83,-64C355.83,-64 224.17,-64 224.17,-64 220.33,-64 216.5,-60.17 216.5,-56.33 216.5,-56.33 216.5,-48.67 216.5,-48.67 216.5,-44.83 220.33,-41 224.17,-41 224.17,-41 355.83,-41 355.83,-41 359.67,-41 363.5,-44.83 363.5,-48.67 363.5,-48.67 363.5,-56.33 363.5,-56.33 363.5,-60.17 359.67,-64 355.83,-64"/>
<text text-anchor="middle" x="290" y="-48.8" font-family="Arial" font-size="14.00" fill="#c6c5fe">scss/generic/_all.scss</text>
</g>
<!-- global.scss&#45;&gt;scss/generic/_all.scss -->
<g id="edge3" class="edge">
<title>global.scss&#45;&gt;scss/generic/_all.scss</title>
<path fill="none" stroke="#757575" d="M119.4,-101.88C153.47,-91.96 202.64,-77.64 239.27,-66.98"/>
<polygon fill="#757575" stroke="#757575" points="240.63,-70.23 249.25,-64.07 238.67,-63.51 240.63,-70.23"/>
</g>
<!-- scss/atoms/_button.scss -->
<g id="node5" class="node">
<title>scss/atoms/_button.scss</title>
<path fill="none" stroke="#cfffac" d="M597.33,-431C597.33,-431 448.67,-431 448.67,-431 444.83,-431 441,-427.17 441,-423.33 441,-423.33 441,-415.67 441,-415.67 441,-411.83 444.83,-408 448.67,-408 448.67,-408 597.33,-408 597.33,-408 601.17,-408 605,-411.83 605,-415.67 605,-415.67 605,-423.33 605,-423.33 605,-427.17 601.17,-431 597.33,-431"/>
<text text-anchor="middle" x="523" y="-415.8" font-family="Arial" font-size="14.00" fill="#cfffac">scss/atoms/_button.scss</text>
</g>
<!-- scss/atoms/_all.scss&#45;&gt;scss/atoms/_button.scss -->
<g id="edge4" class="edge">
<title>scss/atoms/_all.scss&#45;&gt;scss/atoms/_button.scss</title>
<path fill="none" stroke="#757575" d="M360,-304.8C369.73,-307.91 379.09,-312.31 387,-318.5 416.11,-341.3 394.48,-369.96 423,-393.5 427.9,-397.55 433.37,-400.97 439.14,-403.86"/>
<polygon fill="#757575" stroke="#757575" points="437.87,-407.13 448.43,-407.99 440.71,-400.73 437.87,-407.13"/>
</g>
<!-- scss/atoms/_card.scss -->
<g id="node6" class="node">
<title>scss/atoms/_card.scss</title>
<path fill="none" stroke="#cfffac" d="M804.33,-351C804.33,-351 666.67,-351 666.67,-351 662.83,-351 659,-347.17 659,-343.33 659,-343.33 659,-335.67 659,-335.67 659,-331.83 662.83,-328 666.67,-328 666.67,-328 804.33,-328 804.33,-328 808.17,-328 812,-331.83 812,-335.67 812,-335.67 812,-343.33 812,-343.33 812,-347.17 808.17,-351 804.33,-351"/>
<text text-anchor="middle" x="735.5" y="-335.8" font-family="Arial" font-size="14.00" fill="#cfffac">scss/atoms/_card.scss</text>
</g>
<!-- scss/atoms/_all.scss&#45;&gt;scss/atoms/_card.scss -->
<g id="edge5" class="edge">
<title>scss/atoms/_all.scss&#45;&gt;scss/atoms/_card.scss</title>
<path fill="none" stroke="#757575" d="M360.15,-307.26C369.54,-310.04 378.76,-313.7 387,-318.5 407.95,-330.71 400.91,-349.5 423,-359.5 512.09,-399.83 630.36,-373.37 692.4,-354.23"/>
<polygon fill="#757575" stroke="#757575" points="693.75,-357.48 702.23,-351.12 691.64,-350.8 693.75,-357.48"/>
</g>
<!-- scss/atoms/_dialog.scss -->
<g id="node7" class="node">
<title>scss/atoms/_dialog.scss</title>
<path fill="none" stroke="#c6c5fe" d="M596.83,-351C596.83,-351 449.17,-351 449.17,-351 445.33,-351 441.5,-347.17 441.5,-343.33 441.5,-343.33 441.5,-335.67 441.5,-335.67 441.5,-331.83 445.33,-328 449.17,-328 449.17,-328 596.83,-328 596.83,-328 600.67,-328 604.5,-331.83 604.5,-335.67 604.5,-335.67 604.5,-343.33 604.5,-343.33 604.5,-347.17 600.67,-351 596.83,-351"/>
<text text-anchor="middle" x="523" y="-335.8" font-family="Arial" font-size="14.00" fill="#c6c5fe">scss/atoms/_dialog.scss</text>
</g>
<!-- scss/atoms/_all.scss&#45;&gt;scss/atoms/_dialog.scss -->
<g id="edge6" class="edge">
<title>scss/atoms/_all.scss&#45;&gt;scss/atoms/_dialog.scss</title>
<path fill="none" stroke="#757575" d="M355.96,-310.03C384.25,-315.05 417.58,-320.97 446.93,-326.18"/>
<polygon fill="#757575" stroke="#757575" points="446.67,-329.68 457.13,-327.99 447.89,-322.79 446.67,-329.68"/>
</g>
<!-- scss/atoms/_headings.scss -->
<g id="node8" class="node">
<title>scss/atoms/_headings.scss</title>
<path fill="none" stroke="#cfffac" d="M606.33,-310C606.33,-310 439.67,-310 439.67,-310 435.83,-310 432,-306.17 432,-302.33 432,-302.33 432,-294.67 432,-294.67 432,-290.83 435.83,-287 439.67,-287 439.67,-287 606.33,-287 606.33,-287 610.17,-287 614,-290.83 614,-294.67 614,-294.67 614,-302.33 614,-302.33 614,-306.17 610.17,-310 606.33,-310"/>
<text text-anchor="middle" x="523" y="-294.8" font-family="Arial" font-size="14.00" fill="#cfffac">scss/atoms/_headings.scss</text>
</g>
<!-- scss/atoms/_all.scss&#45;&gt;scss/atoms/_headings.scss -->
<g id="edge7" class="edge">
<title>scss/atoms/_all.scss&#45;&gt;scss/atoms/_headings.scss</title>
<path fill="none" stroke="#757575" d="M360.31,-298.5C379.61,-298.5 400.97,-298.5 421.67,-298.5"/>
<polygon fill="#757575" stroke="#757575" points="421.77,-302 431.77,-298.5 421.77,-295 421.77,-302"/>
</g>
<!-- scss/atoms/_input.scss -->
<g id="node9" class="node">
<title>scss/atoms/_input.scss</title>
<path fill="none" stroke="#cfffac" d="M593.33,-269C593.33,-269 452.67,-269 452.67,-269 448.83,-269 445,-265.17 445,-261.33 445,-261.33 445,-253.67 445,-253.67 445,-249.83 448.83,-246 452.67,-246 452.67,-246 593.33,-246 593.33,-246 597.17,-246 601,-249.83 601,-253.67 601,-253.67 601,-261.33 601,-261.33 601,-265.17 597.17,-269 593.33,-269"/>
<text text-anchor="middle" x="523" y="-253.8" font-family="Arial" font-size="14.00" fill="#cfffac">scss/atoms/_input.scss</text>
</g>
<!-- scss/atoms/_all.scss&#45;&gt;scss/atoms/_input.scss -->
<g id="edge8" class="edge">
<title>scss/atoms/_all.scss&#45;&gt;scss/atoms/_input.scss</title>
<path fill="none" stroke="#757575" d="M355.96,-286.97C384.25,-281.95 417.58,-276.03 446.93,-270.82"/>
<polygon fill="#757575" stroke="#757575" points="447.89,-274.21 457.13,-269.01 446.67,-267.32 447.89,-274.21"/>
</g>
<!-- scss/atoms/_lists.scss -->
<g id="node10" class="node">
<title>scss/atoms/_lists.scss</title>
<path fill="none" stroke="#c6c5fe" d="M590.33,-228C590.33,-228 455.67,-228 455.67,-228 451.83,-228 448,-224.17 448,-220.33 448,-220.33 448,-212.67 448,-212.67 448,-208.83 451.83,-205 455.67,-205 455.67,-205 590.33,-205 590.33,-205 594.17,-205 598,-208.83 598,-212.67 598,-212.67 598,-220.33 598,-220.33 598,-224.17 594.17,-228 590.33,-228"/>
<text text-anchor="middle" x="523" y="-212.8" font-family="Arial" font-size="14.00" fill="#c6c5fe">scss/atoms/_lists.scss</text>
</g>
<!-- scss/atoms/_all.scss&#45;&gt;scss/atoms/_lists.scss -->
<g id="edge9" class="edge">
<title>scss/atoms/_all.scss&#45;&gt;scss/atoms/_lists.scss</title>
<path fill="none" stroke="#757575" d="M311.85,-286.78C337.33,-272.92 382.13,-250.01 423,-236.5 429.75,-234.27 436.85,-232.24 444.02,-230.41"/>
<polygon fill="#757575" stroke="#757575" points="444.91,-233.8 453.8,-228.03 443.26,-226.99 444.91,-233.8"/>
</g>
<!-- scss/base/_font&#45;face.scss -->
<g id="node11" class="node">
<title>scss/base/_font&#45;face.scss</title>
<path fill="none" stroke="#cfffac" d="M600.83,-187C600.83,-187 445.17,-187 445.17,-187 441.33,-187 437.5,-183.17 437.5,-179.33 437.5,-179.33 437.5,-171.67 437.5,-171.67 437.5,-167.83 441.33,-164 445.17,-164 445.17,-164 600.83,-164 600.83,-164 604.67,-164 608.5,-167.83 608.5,-171.67 608.5,-171.67 608.5,-179.33 608.5,-179.33 608.5,-183.17 604.67,-187 600.83,-187"/>
<text text-anchor="middle" x="523" y="-171.8" font-family="Arial" font-size="14.00" fill="#cfffac">scss/base/_font&#45;face.scss</text>
</g>
<!-- scss/base/_all.scss&#45;&gt;scss/base/_font&#45;face.scss -->
<g id="edge10" class="edge">
<title>scss/base/_all.scss&#45;&gt;scss/base/_font&#45;face.scss</title>
<path fill="none" stroke="#757575" d="M325.21,-125.08C351.72,-133.82 389.45,-145.75 423,-154.5 432.69,-157.03 442.97,-159.47 453.11,-161.74"/>
<polygon fill="#757575" stroke="#757575" points="452.64,-165.22 463.16,-163.95 454.14,-158.39 452.64,-165.22"/>
</g>
<!-- scss/base/_reset.scss -->
<g id="node12" class="node">
<title>scss/base/_reset.scss</title>
<path fill="none" stroke="#cfffac" d="M589.83,-146C589.83,-146 456.17,-146 456.17,-146 452.33,-146 448.5,-142.17 448.5,-138.33 448.5,-138.33 448.5,-130.67 448.5,-130.67 448.5,-126.83 452.33,-123 456.17,-123 456.17,-123 589.83,-123 589.83,-123 593.67,-123 597.5,-126.83 597.5,-130.67 597.5,-130.67 597.5,-138.33 597.5,-138.33 597.5,-142.17 593.67,-146 589.83,-146"/>
<text text-anchor="middle" x="523" y="-130.8" font-family="Arial" font-size="14.00" fill="#cfffac">scss/base/_reset.scss</text>
</g>
<!-- scss/base/_all.scss&#45;&gt;scss/base/_reset.scss -->
<g id="edge11" class="edge">
<title>scss/base/_all.scss&#45;&gt;scss/base/_reset.scss</title>
<path fill="none" stroke="#757575" d="M356.27,-119.43C381.7,-121.75 411.18,-124.43 438.15,-126.88"/>
<polygon fill="#757575" stroke="#757575" points="438.08,-130.39 448.35,-127.8 438.71,-123.41 438.08,-130.39"/>
</g>
<!-- scss/base/_tables.scss -->
<g id="node13" class="node">
<title>scss/base/_tables.scss</title>
<path fill="none" stroke="#cfffac" d="M592.83,-105C592.83,-105 453.17,-105 453.17,-105 449.33,-105 445.5,-101.17 445.5,-97.33 445.5,-97.33 445.5,-89.67 445.5,-89.67 445.5,-85.83 449.33,-82 453.17,-82 453.17,-82 592.83,-82 592.83,-82 596.67,-82 600.5,-85.83 600.5,-89.67 600.5,-89.67 600.5,-97.33 600.5,-97.33 600.5,-101.17 596.67,-105 592.83,-105"/>
<text text-anchor="middle" x="523" y="-89.8" font-family="Arial" font-size="14.00" fill="#cfffac">scss/base/_tables.scss</text>
</g>
<!-- scss/base/_all.scss&#45;&gt;scss/base/_tables.scss -->
<g id="edge12" class="edge">
<title>scss/base/_all.scss&#45;&gt;scss/base/_tables.scss</title>
<path fill="none" stroke="#757575" d="M356.27,-107.85C380.77,-105.73 409.01,-103.28 435.16,-101.02"/>
<polygon fill="#757575" stroke="#757575" points="435.79,-104.48 445.45,-100.13 435.19,-97.5 435.79,-104.48"/>
</g>
<!-- scss/base/_window.scss -->
<g id="node14" class="node">
<title>scss/base/_window.scss</title>
<path fill="none" stroke="#cfffac" d="M596.83,-64C596.83,-64 449.17,-64 449.17,-64 445.33,-64 441.5,-60.17 441.5,-56.33 441.5,-56.33 441.5,-48.67 441.5,-48.67 441.5,-44.83 445.33,-41 449.17,-41 449.17,-41 596.83,-41 596.83,-41 600.67,-41 604.5,-44.83 604.5,-48.67 604.5,-48.67 604.5,-56.33 604.5,-56.33 604.5,-60.17 600.67,-64 596.83,-64"/>
<text text-anchor="middle" x="523" y="-48.8" font-family="Arial" font-size="14.00" fill="#cfffac">scss/base/_window.scss</text>
</g>
<!-- scss/base/_all.scss&#45;&gt;scss/base/_window.scss -->
<g id="edge13" class="edge">
<title>scss/base/_all.scss&#45;&gt;scss/base/_window.scss</title>
<path fill="none" stroke="#757575" d="M324.92,-101.92C351.42,-93.13 389.29,-81.12 423,-72.5 431.73,-70.27 440.95,-68.13 450.11,-66.13"/>
<polygon fill="#757575" stroke="#757575" points="450.94,-69.53 459.99,-64.02 449.48,-62.68 450.94,-69.53"/>
</g>
<!-- scss/generic/_animations.scss -->
<g id="node15" class="node">
<title>scss/generic/_animations.scss</title>
<path fill="none" stroke="#cfffac" d="M615.33,-23C615.33,-23 430.67,-23 430.67,-23 426.83,-23 423,-19.17 423,-15.33 423,-15.33 423,-7.67 423,-7.67 423,-3.83 426.83,0 430.67,0 430.67,0 615.33,0 615.33,0 619.17,0 623,-3.83 623,-7.67 623,-7.67 623,-15.33 623,-15.33 623,-19.17 619.17,-23 615.33,-23"/>
<text text-anchor="middle" x="523" y="-7.8" font-family="Arial" font-size="14.00" fill="#cfffac">scss/generic/_animations.scss</text>
</g>
<!-- scss/generic/_all.scss&#45;&gt;scss/generic/_animations.scss -->
<g id="edge14" class="edge">
<title>scss/generic/_all.scss&#45;&gt;scss/generic/_animations.scss</title>
<path fill="none" stroke="#757575" d="M355.96,-40.97C384.25,-35.95 417.58,-30.03 446.93,-24.82"/>
<polygon fill="#757575" stroke="#757575" points="447.89,-28.21 457.13,-23.01 446.67,-21.32 447.89,-28.21"/>
</g>
<!-- scss/atoms/_dialog.scss&#45;&gt;scss/atoms/_card.scss -->
<g id="edge15" class="edge">
<title>scss/atoms/_dialog.scss&#45;&gt;scss/atoms/_card.scss</title>
<path fill="none" stroke="#757575" d="M604.78,-339.5C619.06,-339.5 633.97,-339.5 648.38,-339.5"/>
<polygon fill="#757575" stroke="#757575" points="648.77,-343 658.77,-339.5 648.77,-336 648.77,-343"/>
</g>
<!-- scss/atoms/_lists.scss&#45;&gt;scss/atoms/_card.scss -->
<g id="edge16" class="edge">
<title>scss/atoms/_lists.scss&#45;&gt;scss/atoms/_card.scss</title>
<path fill="none" stroke="#757575" d="M598.24,-226.83C606.83,-229.38 615.27,-232.55 623,-236.5 663.12,-257.01 699.39,-296.08 719.06,-319.76"/>
<polygon fill="#757575" stroke="#757575" points="716.5,-322.17 725.53,-327.72 721.94,-317.76 716.5,-322.17"/>
</g>
<!-- scss/functions/_all.scss -->
<g id="node16" class="node">
<title>scss/functions/_all.scss</title>
<path fill="none" stroke="#c6c5fe" d="M149.33,-351C149.33,-351 7.67,-351 7.67,-351 3.83,-351 0,-347.17 0,-343.33 0,-343.33 0,-335.67 0,-335.67 0,-331.83 3.83,-328 7.67,-328 7.67,-328 149.33,-328 149.33,-328 153.17,-328 157,-331.83 157,-335.67 157,-335.67 157,-343.33 157,-343.33 157,-347.17 153.17,-351 149.33,-351"/>
<text text-anchor="middle" x="78.5" y="-335.8" font-family="Arial" font-size="14.00" fill="#c6c5fe">scss/functions/_all.scss</text>
</g>
<!-- scss/functions/_units.scss -->
<g id="node17" class="node">
<title>scss/functions/_units.scss</title>
<path fill="none" stroke="#cfffac" d="M368.33,-351C368.33,-351 211.67,-351 211.67,-351 207.83,-351 204,-347.17 204,-343.33 204,-343.33 204,-335.67 204,-335.67 204,-331.83 207.83,-328 211.67,-328 211.67,-328 368.33,-328 368.33,-328 372.17,-328 376,-331.83 376,-335.67 376,-335.67 376,-343.33 376,-343.33 376,-347.17 372.17,-351 368.33,-351"/>
<text text-anchor="middle" x="290" y="-335.8" font-family="Arial" font-size="14.00" fill="#cfffac">scss/functions/_units.scss</text>
</g>
<!-- scss/functions/_all.scss&#45;&gt;scss/functions/_units.scss -->
<g id="edge17" class="edge">
<title>scss/functions/_all.scss&#45;&gt;scss/functions/_units.scss</title>
<path fill="none" stroke="#757575" d="M157.21,-339.5C169.04,-339.5 181.36,-339.5 193.51,-339.5"/>
<polygon fill="#757575" stroke="#757575" points="193.67,-343 203.67,-339.5 193.67,-336 193.67,-343"/>
</g>
<!-- scss/mixins/_all.scss -->
<g id="node18" class="node">
<title>scss/mixins/_all.scss</title>
<path fill="none" stroke="#c6c5fe" d="M141.83,-412C141.83,-412 15.17,-412 15.17,-412 11.33,-412 7.5,-408.17 7.5,-404.33 7.5,-404.33 7.5,-396.67 7.5,-396.67 7.5,-392.83 11.33,-389 15.17,-389 15.17,-389 141.83,-389 141.83,-389 145.67,-389 149.5,-392.83 149.5,-396.67 149.5,-396.67 149.5,-404.33 149.5,-404.33 149.5,-408.17 145.67,-412 141.83,-412"/>
<text text-anchor="middle" x="78.5" y="-396.8" font-family="Arial" font-size="14.00" fill="#c6c5fe">scss/mixins/_all.scss</text>
</g>
<!-- scss/mixins/_helpers.scss -->
<g id="node19" class="node">
<title>scss/mixins/_helpers.scss</title>
<path fill="none" stroke="#cfffac" d="M368.83,-433C368.83,-433 211.17,-433 211.17,-433 207.33,-433 203.5,-429.17 203.5,-425.33 203.5,-425.33 203.5,-417.67 203.5,-417.67 203.5,-413.83 207.33,-410 211.17,-410 211.17,-410 368.83,-410 368.83,-410 372.67,-410 376.5,-413.83 376.5,-417.67 376.5,-417.67 376.5,-425.33 376.5,-425.33 376.5,-429.17 372.67,-433 368.83,-433"/>
<text text-anchor="middle" x="290" y="-417.8" font-family="Arial" font-size="14.00" fill="#cfffac">scss/mixins/_helpers.scss</text>
</g>
<!-- scss/mixins/_all.scss&#45;&gt;scss/mixins/_helpers.scss -->
<g id="edge18" class="edge">
<title>scss/mixins/_all.scss&#45;&gt;scss/mixins/_helpers.scss</title>
<path fill="none" stroke="#757575" d="M149.55,-407.52C163.57,-408.93 178.51,-410.43 193.22,-411.9"/>
<polygon fill="#757575" stroke="#757575" points="193.06,-415.4 203.36,-412.92 193.75,-408.44 193.06,-415.4"/>
</g>
<!-- scss/mixins/_responsive.scss -->
<g id="node20" class="node">
<title>scss/mixins/_responsive.scss</title>
<path fill="none" stroke="#cfffac" d="M379.33,-392C379.33,-392 200.67,-392 200.67,-392 196.83,-392 193,-388.17 193,-384.33 193,-384.33 193,-376.67 193,-376.67 193,-372.83 196.83,-369 200.67,-369 200.67,-369 379.33,-369 379.33,-369 383.17,-369 387,-372.83 387,-376.67 387,-376.67 387,-384.33 387,-384.33 387,-388.17 383.17,-392 379.33,-392"/>
<text text-anchor="middle" x="290" y="-376.8" font-family="Arial" font-size="14.00" fill="#cfffac">scss/mixins/_responsive.scss</text>
</g>
<!-- scss/mixins/_all.scss&#45;&gt;scss/mixins/_responsive.scss -->
<g id="edge19" class="edge">
<title>scss/mixins/_all.scss&#45;&gt;scss/mixins/_responsive.scss</title>
<path fill="none" stroke="#757575" d="M149.55,-393.81C160.21,-392.8 171.4,-391.73 182.62,-390.66"/>
<polygon fill="#757575" stroke="#757575" points="183.3,-394.11 192.92,-389.67 182.63,-387.14 183.3,-394.11"/>
</g>
<!-- scss/settings/_all.scss -->
<g id="node21" class="node">
<title>scss/settings/_all.scss</title>
<path fill="none" stroke="#c6c5fe" d="M145.33,-576C145.33,-576 11.67,-576 11.67,-576 7.83,-576 4,-572.17 4,-568.33 4,-568.33 4,-560.67 4,-560.67 4,-556.83 7.83,-553 11.67,-553 11.67,-553 145.33,-553 145.33,-553 149.17,-553 153,-556.83 153,-560.67 153,-560.67 153,-568.33 153,-568.33 153,-572.17 149.17,-576 145.33,-576"/>
<text text-anchor="middle" x="78.5" y="-560.8" font-family="Arial" font-size="14.00" fill="#c6c5fe">scss/settings/_all.scss</text>
</g>
<!-- scss/settings/_color.scss -->
<g id="node22" class="node">
<title>scss/settings/_color.scss</title>
<path fill="none" stroke="#cfffac" d="M364.33,-679C364.33,-679 215.67,-679 215.67,-679 211.83,-679 208,-675.17 208,-671.33 208,-671.33 208,-663.67 208,-663.67 208,-659.83 211.83,-656 215.67,-656 215.67,-656 364.33,-656 364.33,-656 368.17,-656 372,-659.83 372,-663.67 372,-663.67 372,-671.33 372,-671.33 372,-675.17 368.17,-679 364.33,-679"/>
<text text-anchor="middle" x="290" y="-663.8" font-family="Arial" font-size="14.00" fill="#cfffac">scss/settings/_color.scss</text>
</g>
<!-- scss/settings/_all.scss&#45;&gt;scss/settings/_color.scss -->
<g id="edge20" class="edge">
<title>scss/settings/_all.scss&#45;&gt;scss/settings/_color.scss</title>
<path fill="none" stroke="#757575" d="M91.64,-576.17C111.28,-594.36 151.96,-629.25 193,-647.5 197.6,-649.54 202.41,-651.38 207.33,-653.04"/>
<polygon fill="#757575" stroke="#757575" points="206.31,-656.38 216.9,-655.99 208.38,-649.7 206.31,-656.38"/>
</g>
<!-- scss/settings/_easings.scss -->
<g id="node23" class="node">
<title>scss/settings/_easings.scss</title>
<path fill="none" stroke="#cfffac" d="M373.33,-638C373.33,-638 206.67,-638 206.67,-638 202.83,-638 199,-634.17 199,-630.33 199,-630.33 199,-622.67 199,-622.67 199,-618.83 202.83,-615 206.67,-615 206.67,-615 373.33,-615 373.33,-615 377.17,-615 381,-618.83 381,-622.67 381,-622.67 381,-630.33 381,-630.33 381,-634.17 377.17,-638 373.33,-638"/>
<text text-anchor="middle" x="290" y="-622.8" font-family="Arial" font-size="14.00" fill="#cfffac">scss/settings/_easings.scss</text>
</g>
<!-- scss/settings/_all.scss&#45;&gt;scss/settings/_easings.scss -->
<g id="edge21" class="edge">
<title>scss/settings/_all.scss&#45;&gt;scss/settings/_easings.scss</title>
<path fill="none" stroke="#757575" d="M107.1,-576.03C129.85,-585.21 163.11,-597.91 193,-606.5 200.74,-608.72 208.89,-610.81 217.04,-612.73"/>
<polygon fill="#757575" stroke="#757575" points="216.43,-616.18 226.95,-614.99 217.98,-609.35 216.43,-616.18"/>
</g>
<!-- scss/settings/_shadow.scss -->
<g id="node24" class="node">
<title>scss/settings/_shadow.scss</title>
<path fill="none" stroke="#cfffac" d="M373.33,-597C373.33,-597 206.67,-597 206.67,-597 202.83,-597 199,-593.17 199,-589.33 199,-589.33 199,-581.67 199,-581.67 199,-577.83 202.83,-574 206.67,-574 206.67,-574 373.33,-574 373.33,-574 377.17,-574 381,-577.83 381,-581.67 381,-581.67 381,-589.33 381,-589.33 381,-593.17 377.17,-597 373.33,-597"/>
<text text-anchor="middle" x="290" y="-581.8" font-family="Arial" font-size="14.00" fill="#cfffac">scss/settings/_shadow.scss</text>
</g>
<!-- scss/settings/_all.scss&#45;&gt;scss/settings/_shadow.scss -->
<g id="edge22" class="edge">
<title>scss/settings/_all.scss&#45;&gt;scss/settings/_shadow.scss</title>
<path fill="none" stroke="#757575" d="M153.07,-571.87C164.58,-573.03 176.65,-574.24 188.64,-575.44"/>
<polygon fill="#757575" stroke="#757575" points="188.38,-578.93 198.68,-576.45 189.08,-571.97 188.38,-578.93"/>
</g>
<!-- scss/settings/_sizes.scss -->
<g id="node25" class="node">
<title>scss/settings/_sizes.scss</title>
<path fill="none" stroke="#cfffac" d="M365.83,-556C365.83,-556 214.17,-556 214.17,-556 210.33,-556 206.5,-552.17 206.5,-548.33 206.5,-548.33 206.5,-540.67 206.5,-540.67 206.5,-536.83 210.33,-533 214.17,-533 214.17,-533 365.83,-533 365.83,-533 369.67,-533 373.5,-536.83 373.5,-540.67 373.5,-540.67 373.5,-548.33 373.5,-548.33 373.5,-552.17 369.67,-556 365.83,-556"/>
<text text-anchor="middle" x="290" y="-540.8" font-family="Arial" font-size="14.00" fill="#cfffac">scss/settings/_sizes.scss</text>
</g>
<!-- scss/settings/_all.scss&#45;&gt;scss/settings/_sizes.scss -->
<g id="edge23" class="edge">
<title>scss/settings/_all.scss&#45;&gt;scss/settings/_sizes.scss</title>
<path fill="none" stroke="#757575" d="M153.07,-557.48C167.05,-556.14 181.86,-554.73 196.34,-553.35"/>
<polygon fill="#757575" stroke="#757575" points="196.69,-556.83 206.31,-552.39 196.02,-549.86 196.69,-556.83"/>
</g>
<!-- scss/settings/_type.scss -->
<g id="node26" class="node">
<title>scss/settings/_type.scss</title>
<path fill="none" stroke="#cfffac" d="M362.83,-515C362.83,-515 217.17,-515 217.17,-515 213.33,-515 209.5,-511.17 209.5,-507.33 209.5,-507.33 209.5,-499.67 209.5,-499.67 209.5,-495.83 213.33,-492 217.17,-492 217.17,-492 362.83,-492 362.83,-492 366.67,-492 370.5,-495.83 370.5,-499.67 370.5,-499.67 370.5,-507.33 370.5,-507.33 370.5,-511.17 366.67,-515 362.83,-515"/>
<text text-anchor="middle" x="290" y="-499.8" font-family="Arial" font-size="14.00" fill="#cfffac">scss/settings/_type.scss</text>
</g>
<!-- scss/settings/_all.scss&#45;&gt;scss/settings/_type.scss -->
<g id="edge24" class="edge">
<title>scss/settings/_all.scss&#45;&gt;scss/settings/_type.scss</title>
<path fill="none" stroke="#757575" d="M109.05,-552.96C131.77,-544.36 164.06,-532.73 193,-524.5 202.01,-521.94 211.58,-519.51 221.04,-517.27"/>
<polygon fill="#757575" stroke="#757575" points="221.88,-520.67 230.84,-515.01 220.31,-513.85 221.88,-520.67"/>
</g>
<!-- scss/settings/_z&#45;space.scss -->
<g id="node27" class="node">
<title>scss/settings/_z&#45;space.scss</title>
<path fill="none" stroke="#cfffac" d="M373.83,-474C373.83,-474 206.17,-474 206.17,-474 202.33,-474 198.5,-470.17 198.5,-466.33 198.5,-466.33 198.5,-458.67 198.5,-458.67 198.5,-454.83 202.33,-451 206.17,-451 206.17,-451 373.83,-451 373.83,-451 377.67,-451 381.5,-454.83 381.5,-458.67 381.5,-458.67 381.5,-466.33 381.5,-466.33 381.5,-470.17 377.67,-474 373.83,-474"/>
<text text-anchor="middle" x="290" y="-458.8" font-family="Arial" font-size="14.00" fill="#cfffac">scss/settings/_z&#45;space.scss</text>
</g>
<!-- scss/settings/_all.scss&#45;&gt;scss/settings/_z&#45;space.scss -->
<g id="edge25" class="edge">
<title>scss/settings/_all.scss&#45;&gt;scss/settings/_z&#45;space.scss</title>
<path fill="none" stroke="#757575" d="M92.05,-552.88C111.91,-535.14 152.51,-501.47 193,-483.5 198.44,-481.08 204.19,-478.94 210.05,-477.03"/>
<polygon fill="#757575" stroke="#757575" points="211.43,-480.27 220,-474.04 209.41,-473.57 211.43,-480.27"/>
</g>
</g>
</svg>
