<?xml version="1.0" encoding="UTF-8" standalone="no"?>
<!DOCTYPE svg PUBLIC "-//W3C//DTD SVG 1.1//EN"
 "http://www.w3.org/Graphics/SVG/1.1/DTD/svg11.dtd">
<!-- Generated by graphviz version 2.43.0 (0)
 -->
<!-- Title: G Pages: 1 -->
<svg width="492pt" height="394pt"
 viewBox="0.00 0.00 492.20 394.20" xmlns="http://www.w3.org/2000/svg" xmlns:xlink="http://www.w3.org/1999/xlink">
<g id="graph0" class="graph" transform="scale(1 1) rotate(0) translate(21.6 372.6)">
<title>G</title>
<polygon fill="#111111" stroke="transparent" points="-21.6,21.6 -21.6,-372.6 470.6,-372.6 470.6,21.6 -21.6,21.6"/>
<!-- engine.scss -->
<g id="node1" class="node">
<title>engine.scss</title>
<path fill="none" stroke="#c6c5fe" d="M80.33,-289C80.33,-289 7.67,-289 7.67,-289 3.83,-289 0,-285.17 0,-281.33 0,-281.33 0,-273.67 0,-273.67 0,-269.83 3.83,-266 7.67,-266 7.67,-266 80.33,-266 80.33,-266 84.17,-266 88,-269.83 88,-273.67 88,-273.67 88,-281.33 88,-281.33 88,-285.17 84.17,-289 80.33,-289"/>
<text text-anchor="middle" x="44" y="-273.8" font-family="Arial" font-size="14.00" fill="#c6c5fe">engine.scss</text>
</g>
<!-- functions/_all.scss -->
<g id="node2" class="node">
<title>functions/_all.scss</title>
<path fill="none" stroke="#c6c5fe" d="M242.33,-340C242.33,-340 131.67,-340 131.67,-340 127.83,-340 124,-336.17 124,-332.33 124,-332.33 124,-324.67 124,-324.67 124,-320.83 127.83,-317 131.67,-317 131.67,-317 242.33,-317 242.33,-317 246.17,-317 250,-320.83 250,-324.67 250,-324.67 250,-332.33 250,-332.33 250,-336.17 246.17,-340 242.33,-340"/>
<text text-anchor="middle" x="187" y="-324.8" font-family="Arial" font-size="14.00" fill="#c6c5fe">functions/_all.scss</text>
</g>
<!-- engine.scss&#45;&gt;functions/_all.scss -->
<g id="edge1" class="edge">
<title>engine.scss&#45;&gt;functions/_all.scss</title>
<path fill="none" stroke="#757575" d="M77,-289.07C97.01,-296.31 122.99,-305.71 144.56,-313.51"/>
<polygon fill="#757575" stroke="#757575" points="143.54,-316.86 154.13,-316.97 145.92,-310.28 143.54,-316.86"/>
</g>
<!-- mixins/_all.scss -->
<g id="node3" class="node">
<title>mixins/_all.scss</title>
<path fill="none" stroke="#c6c5fe" d="M234.83,-289C234.83,-289 139.17,-289 139.17,-289 135.33,-289 131.5,-285.17 131.5,-281.33 131.5,-281.33 131.5,-273.67 131.5,-273.67 131.5,-269.83 135.33,-266 139.17,-266 139.17,-266 234.83,-266 234.83,-266 238.67,-266 242.5,-269.83 242.5,-273.67 242.5,-273.67 242.5,-281.33 242.5,-281.33 242.5,-285.17 238.67,-289 234.83,-289"/>
<text text-anchor="middle" x="187" y="-273.8" font-family="Arial" font-size="14.00" fill="#c6c5fe">mixins/_all.scss</text>
</g>
<!-- engine.scss&#45;&gt;mixins/_all.scss -->
<g id="edge2" class="edge">
<title>engine.scss&#45;&gt;mixins/_all.scss</title>
<path fill="none" stroke="#757575" d="M88.07,-277.5C98.55,-277.5 109.99,-277.5 121.23,-277.5"/>
<polygon fill="#757575" stroke="#757575" points="121.46,-281 131.46,-277.5 121.46,-274 121.46,-281"/>
</g>
<!-- settings/_all.scss -->
<g id="node4" class="node">
<title>settings/_all.scss</title>
<path fill="none" stroke="#c6c5fe" d="M238.83,-146C238.83,-146 135.17,-146 135.17,-146 131.33,-146 127.5,-142.17 127.5,-138.33 127.5,-138.33 127.5,-130.67 127.5,-130.67 127.5,-126.83 131.33,-123 135.17,-123 135.17,-123 238.83,-123 238.83,-123 242.67,-123 246.5,-126.83 246.5,-130.67 246.5,-130.67 246.5,-138.33 246.5,-138.33 246.5,-142.17 242.67,-146 238.83,-146"/>
<text text-anchor="middle" x="187" y="-130.8" font-family="Arial" font-size="14.00" fill="#c6c5fe">settings/_all.scss</text>
</g>
<!-- engine.scss&#45;&gt;settings/_all.scss -->
<g id="edge3" class="edge">
<title>engine.scss&#45;&gt;settings/_all.scss</title>
<path fill="none" stroke="#757575" d="M56.54,-265.8C80.81,-241.18 137.35,-183.84 167.03,-153.74"/>
<polygon fill="#757575" stroke="#757575" points="169.77,-155.94 174.3,-146.36 164.79,-151.03 169.77,-155.94"/>
</g>
<!-- functions/_units.scss -->
<g id="node5" class="node">
<title>functions/_units.scss</title>
<path fill="none" stroke="#cfffac" d="M430.33,-351C430.33,-351 304.67,-351 304.67,-351 300.83,-351 297,-347.17 297,-343.33 297,-343.33 297,-335.67 297,-335.67 297,-331.83 300.83,-328 304.67,-328 304.67,-328 430.33,-328 430.33,-328 434.17,-328 438,-331.83 438,-335.67 438,-335.67 438,-343.33 438,-343.33 438,-347.17 434.17,-351 430.33,-351"/>
<text text-anchor="middle" x="367.5" y="-335.8" font-family="Arial" font-size="14.00" fill="#cfffac">functions/_units.scss</text>
</g>
<!-- functions/_all.scss&#45;&gt;functions/_units.scss -->
<g id="edge4" class="edge">
<title>functions/_all.scss&#45;&gt;functions/_units.scss</title>
<path fill="none" stroke="#757575" d="M250.18,-332.33C261.97,-333.06 274.46,-333.83 286.7,-334.58"/>
<polygon fill="#757575" stroke="#757575" points="286.72,-338.09 296.92,-335.21 287.15,-331.1 286.72,-338.09"/>
</g>
<!-- mixins/_helpers.scss -->
<g id="node6" class="node">
<title>mixins/_helpers.scss</title>
<path fill="none" stroke="#cfffac" d="M430.83,-310C430.83,-310 304.17,-310 304.17,-310 300.33,-310 296.5,-306.17 296.5,-302.33 296.5,-302.33 296.5,-294.67 296.5,-294.67 296.5,-290.83 300.33,-287 304.17,-287 304.17,-287 430.83,-287 430.83,-287 434.67,-287 438.5,-290.83 438.5,-294.67 438.5,-294.67 438.5,-302.33 438.5,-302.33 438.5,-306.17 434.67,-310 430.83,-310"/>
<text text-anchor="middle" x="367.5" y="-294.8" font-family="Arial" font-size="14.00" fill="#cfffac">mixins/_helpers.scss</text>
</g>
<!-- mixins/_all.scss&#45;&gt;mixins/_helpers.scss -->
<g id="edge5" class="edge">
<title>mixins/_all.scss&#45;&gt;mixins/_helpers.scss</title>
<path fill="none" stroke="#757575" d="M242.53,-283.91C256.35,-285.54 271.5,-287.32 286.31,-289.07"/>
<polygon fill="#757575" stroke="#757575" points="286.15,-292.57 296.49,-290.26 286.97,-285.62 286.15,-292.57"/>
</g>
<!-- mixins/_responsive.scss -->
<g id="node7" class="node">
<title>mixins/_responsive.scss</title>
<path fill="none" stroke="#cfffac" d="M441.33,-269C441.33,-269 293.67,-269 293.67,-269 289.83,-269 286,-265.17 286,-261.33 286,-261.33 286,-253.67 286,-253.67 286,-249.83 289.83,-246 293.67,-246 293.67,-246 441.33,-246 441.33,-246 445.17,-246 449,-249.83 449,-253.67 449,-253.67 449,-261.33 449,-261.33 449,-265.17 445.17,-269 441.33,-269"/>
<text text-anchor="middle" x="367.5" y="-253.8" font-family="Arial" font-size="14.00" fill="#cfffac">mixins/_responsive.scss</text>
</g>
<!-- mixins/_all.scss&#45;&gt;mixins/_responsive.scss -->
<g id="edge6" class="edge">
<title>mixins/_all.scss&#45;&gt;mixins/_responsive.scss</title>
<path fill="none" stroke="#757575" d="M242.53,-271.39C253.07,-270.21 264.39,-268.94 275.73,-267.67"/>
<polygon fill="#757575" stroke="#757575" points="276.14,-271.15 285.69,-266.55 275.36,-264.19 276.14,-271.15"/>
</g>
<!-- settings/_color.scss -->
<g id="node8" class="node">
<title>settings/_color.scss</title>
<path fill="none" stroke="#cfffac" d="M426.83,-228C426.83,-228 308.17,-228 308.17,-228 304.33,-228 300.5,-224.17 300.5,-220.33 300.5,-220.33 300.5,-212.67 300.5,-212.67 300.5,-208.83 304.33,-205 308.17,-205 308.17,-205 426.83,-205 426.83,-205 430.67,-205 434.5,-208.83 434.5,-212.67 434.5,-212.67 434.5,-220.33 434.5,-220.33 434.5,-224.17 430.67,-228 426.83,-228"/>
<text text-anchor="middle" x="367.5" y="-212.8" font-family="Arial" font-size="14.00" fill="#cfffac">settings/_color.scss</text>
</g>
<!-- settings/_all.scss&#45;&gt;settings/_color.scss -->
<g id="edge7" class="edge">
<title>settings/_all.scss&#45;&gt;settings/_color.scss</title>
<path fill="none" stroke="#757575" d="M203.09,-146.24C221.64,-160.12 254.53,-183.05 286,-196.5 290.48,-198.41 295.19,-200.17 299.97,-201.78"/>
<polygon fill="#757575" stroke="#757575" points="299.29,-205.24 309.88,-204.88 301.38,-198.55 299.29,-205.24"/>
</g>
<!-- settings/_easings.scss -->
<g id="node9" class="node">
<title>settings/_easings.scss</title>
<path fill="none" stroke="#cfffac" d="M435.83,-187C435.83,-187 299.17,-187 299.17,-187 295.33,-187 291.5,-183.17 291.5,-179.33 291.5,-179.33 291.5,-171.67 291.5,-171.67 291.5,-167.83 295.33,-164 299.17,-164 299.17,-164 435.83,-164 435.83,-164 439.67,-164 443.5,-167.83 443.5,-171.67 443.5,-171.67 443.5,-179.33 443.5,-179.33 443.5,-183.17 439.67,-187 435.83,-187"/>
<text text-anchor="middle" x="367.5" y="-171.8" font-family="Arial" font-size="14.00" fill="#cfffac">settings/_easings.scss</text>
</g>
<!-- settings/_all.scss&#45;&gt;settings/_easings.scss -->
<g id="edge8" class="edge">
<title>settings/_all.scss&#45;&gt;settings/_easings.scss</title>
<path fill="none" stroke="#757575" d="M238.2,-146.03C259.39,-150.9 284.24,-156.61 306.4,-161.7"/>
<polygon fill="#757575" stroke="#757575" points="305.84,-165.16 316.37,-163.99 307.41,-158.34 305.84,-165.16"/>
</g>
<!-- settings/_shadow.scss -->
<g id="node10" class="node">
<title>settings/_shadow.scss</title>
<path fill="none" stroke="#cfffac" d="M435.33,-146C435.33,-146 299.67,-146 299.67,-146 295.83,-146 292,-142.17 292,-138.33 292,-138.33 292,-130.67 292,-130.67 292,-126.83 295.83,-123 299.67,-123 299.67,-123 435.33,-123 435.33,-123 439.17,-123 443,-126.83 443,-130.67 443,-130.67 443,-138.33 443,-138.33 443,-142.17 439.17,-146 435.33,-146"/>
<text text-anchor="middle" x="367.5" y="-130.8" font-family="Arial" font-size="14.00" fill="#cfffac">settings/_shadow.scss</text>
</g>
<!-- settings/_all.scss&#45;&gt;settings/_shadow.scss -->
<g id="edge9" class="edge">
<title>settings/_all.scss&#45;&gt;settings/_shadow.scss</title>
<path fill="none" stroke="#757575" d="M246.94,-134.5C258.02,-134.5 269.8,-134.5 281.48,-134.5"/>
<polygon fill="#757575" stroke="#757575" points="281.7,-138 291.7,-134.5 281.7,-131 281.7,-138"/>
</g>
<!-- settings/_sizes.scss -->
<g id="node11" class="node">
<title>settings/_sizes.scss</title>
<path fill="none" stroke="#cfffac" d="M427.83,-105C427.83,-105 307.17,-105 307.17,-105 303.33,-105 299.5,-101.17 299.5,-97.33 299.5,-97.33 299.5,-89.67 299.5,-89.67 299.5,-85.83 303.33,-82 307.17,-82 307.17,-82 427.83,-82 427.83,-82 431.67,-82 435.5,-85.83 435.5,-89.67 435.5,-89.67 435.5,-97.33 435.5,-97.33 435.5,-101.17 431.67,-105 427.83,-105"/>
<text text-anchor="middle" x="367.5" y="-89.8" font-family="Arial" font-size="14.00" fill="#cfffac">settings/_sizes.scss</text>
</g>
<!-- settings/_all.scss&#45;&gt;settings/_sizes.scss -->
<g id="edge10" class="edge">
<title>settings/_all.scss&#45;&gt;settings/_sizes.scss</title>
<path fill="none" stroke="#757575" d="M238.2,-122.97C259.39,-118.1 284.24,-112.39 306.4,-107.3"/>
<polygon fill="#757575" stroke="#757575" points="307.41,-110.66 316.37,-105.01 305.84,-103.84 307.41,-110.66"/>
</g>
<!-- settings/_type.scss -->
<g id="node12" class="node">
<title>settings/_type.scss</title>
<path fill="none" stroke="#cfffac" d="M425.33,-64C425.33,-64 309.67,-64 309.67,-64 305.83,-64 302,-60.17 302,-56.33 302,-56.33 302,-48.67 302,-48.67 302,-44.83 305.83,-41 309.67,-41 309.67,-41 425.33,-41 425.33,-41 429.17,-41 433,-44.83 433,-48.67 433,-48.67 433,-56.33 433,-56.33 433,-60.17 429.17,-64 425.33,-64"/>
<text text-anchor="middle" x="367.5" y="-48.8" font-family="Arial" font-size="14.00" fill="#cfffac">settings/_type.scss</text>
</g>
<!-- settings/_all.scss&#45;&gt;settings/_type.scss -->
<g id="edge11" class="edge">
<title>settings/_all.scss&#45;&gt;settings/_type.scss</title>
<path fill="none" stroke="#757575" d="M203.48,-122.79C222.14,-109.18 254.88,-86.88 286,-73.5 291.44,-71.16 297.2,-69.03 303.05,-67.11"/>
<polygon fill="#757575" stroke="#757575" points="304.39,-70.36 312.91,-64.06 302.32,-63.67 304.39,-70.36"/>
</g>
<!-- settings/_z&#45;space.scss -->
<g id="node13" class="node">
<title>settings/_z&#45;space.scss</title>
<path fill="none" stroke="#cfffac" d="M435.83,-23C435.83,-23 299.17,-23 299.17,-23 295.33,-23 291.5,-19.17 291.5,-15.33 291.5,-15.33 291.5,-7.67 291.5,-7.67 291.5,-3.83 295.33,0 299.17,0 299.17,0 435.83,0 435.83,0 439.67,0 443.5,-3.83 443.5,-7.67 443.5,-7.67 443.5,-15.33 443.5,-15.33 443.5,-19.17 439.67,-23 435.83,-23"/>
<text text-anchor="middle" x="367.5" y="-7.8" font-family="Arial" font-size="14.00" fill="#cfffac">settings/_z&#45;space.scss</text>
</g>
<!-- settings/_all.scss&#45;&gt;settings/_z&#45;space.scss -->
<g id="edge12" class="edge">
<title>settings/_all.scss&#45;&gt;settings/_z&#45;space.scss</title>
<path fill="none" stroke="#757575" d="M195.92,-122.7C210.9,-101.33 245.54,-56.22 286,-32.5 289.64,-30.36 293.51,-28.44 297.49,-26.71"/>
<polygon fill="#757575" stroke="#757575" points="298.91,-29.91 306.96,-23.02 296.37,-23.39 298.91,-29.91"/>
</g>
</g>
</svg>
